<svg width="26" height="39" viewBox="0 0 26 39" fill="none" xmlns="http://www.w3.org/2000/svg">
<path d="M6.45169 26.1569V37.7778H0.75293V20.7935C1.80328 23.6692 5.13875 25.5034 6.45169 26.1569Z" fill="#F8F8F8"/>
<path d="M24.1857 38.1126H17V26.7355C19.8743 25.9554 22.0986 24.4567 22.6429 23.6982V32.5257H24.1857C25.2309 32.5257 25.4922 33.3925 25.4922 33.8259V36.8124C25.4922 37.8526 24.6212 38.1126 24.1857 38.1126Z" fill="#F8F8F8"/>
<path fill-rule="evenodd" clip-rule="evenodd" d="M25.4478 13.4677C25.4478 7.74908 21.4967 0.568359 13.2652 0.568359H0.753418V13.4677C0.753418 17.8674 3.7826 25.151 13.2652 25.151C18.9749 25.151 25.4478 21.4577 25.4478 13.4677ZM13.4918 6.15533H6.34044V13.4677C6.34044 17.8674 10.6312 19.4994 13.2652 19.4994C17.3972 19.4994 19.8504 16.2354 19.8504 13.4677C19.8504 8.72827 15.7966 6.15533 13.4918 6.15533Z" fill="#F8F8F8"/>
</svg>
